<?xml version="1.0" encoding="utf-8"?>
<!-- Generator: Adobe Illustrator 22.0.0, SVG Export Plug-In . SVG Version: 6.00 Build 0)  -->
<svg version="1.0" id="Layer_1" xmlns="http://www.w3.org/2000/svg" xmlns:xlink="http://www.w3.org/1999/xlink" x="0px" y="0px"
	 viewBox="0 0 5000 4000" style="enable-background:new 0 0 5000 4000;" xml:space="preserve">
<style type="text/css">
	.st0{fill:#333333;}
</style>
<g>
	<path class="st0" d="M938.7,3179.4c171.4-43.8,337.6-87.3,504.4-128.7c155.1-38.5,311.3-72.4,465.6-113.5c1.3-0.3,2.5-0.7,3.8-1.1
		c59.2-18.4,59.7-107.3-0.2-123.3c-0.3-0.1-0.7-0.2-1-0.3c-420.7-105.9-841.7-210.8-1264.1-309.3c-79.1-18.5-106.8-52.9-110-129.7
		c-7.2-172.8,16.3-339.9,85.4-498c133.1-304.4,146.5-617,93.1-941.3c-34.2-207.6-53.2-417.7-76.5-637.1c-5.6-52.3,51.3-88.4,96.3-61
		c141.4,86,276.4,168,411.2,250.4c203.3,124.3,404.3,252.5,611,370.9c44.3,25.4,121.9,37.8,171.9,27.4
		c384-80.1,765.7-82.2,1149.2,2.8c47.8,10.6,112,2.1,153.7-22.7c353.9-210.9,704.3-427.8,1055.9-642.6l0.7-0.4
		c35.8-21.8,81,7.5,75.8,49.1c-16.5,132.7-32.8,256-43.2,379.9c-23.3,279.4-108.7,557.3-49.1,838.8
		c39.7,187.3,114.6,366.9,158.4,553.5c26.5,112.9,26,232.6,32.8,349.5c3.4,59.2-27.5,90.4-90.6,105.6
		c-421.9,101-842.7,206.5-1263.9,310.7c-15.8,3.9-33.5,5.3-46.6,13.6c-4.2,2.6-8.2,5.4-12.3,8.2c-36.9,25.9-30.7,85.7,12.8,97.5
		c0.3,0.1,0.5,0.1,0.8,0.2c312.9,79.9,626.7,156.6,940.1,234.6c21.2,5.3,41.4,14,65.1,22.2
		C3260.3,4017.6,1620.1,3936.9,938.7,3179.4z M2500.1,3115.8c33.6,34.2,56.7,62.2,84.2,84.9c113.7,94.1,295.2,102.4,409.7,15.5
		c20.7-15.7,26.2-51.3,38.7-77.7c-27.7-1.6-56.5-8.8-82.7-3.4c-27.9,5.8-52.4,25.9-79.9,35.5c-97.6,34.1-217-8.8-274.8-97
		c-45.8-70-26.5-144.5,59.7-230.8c23.1-23.1,46.4-46.2,69.2-69.6c67-68.7,64.2-97.3-14.8-153.4c-121.1-86.1-290.3-87.1-414.5-2.5
		c-84.5,57.6-86.9,84.1-13.7,159c25.2,25.8,51,50.8,76.3,76.4c117,118.8,89.3,247.6-65,311.9c-87.7,36.5-164.1,15-241.2-31.2
		c-19.5-11.7-51.4-2.7-77.6-3.2c9,27.5,10.2,63.8,28.9,80.5c27.9,24.8,66.5,42,103.4,51.6
		C2265.5,3303.7,2394.4,3251.1,2500.1,3115.8z M1298.5,2063.3c-1,163.6,118,287.1,278.8,289.3c158.1,2.2,289.9-124.1,292-279.7
		c2.2-157.9-123-285.3-282.3-287.5C1423,1783.2,1299.5,1902.2,1298.5,2063.3z M3705.5,2067.7c-0.1-163-122.9-283.4-287.7-282.2
		c-157,1.2-282.8,123.2-286.3,277.8c-3.4,152.1,130.7,287.5,286.8,289.4C3578.5,2354.8,3705.6,2228.7,3705.5,2067.7z"/>
	<path class="st0" d="M4413.4,2585.9c6.4,17,8.8,20.1,8.2,22.5c-51.8,217.4-56.5,221.2-273.9,221.2c-219.4,0-438.9,0-658.3,0
		c-0.9-5.2-1.8-10.4-2.7-15.5C3796.2,2737.9,4105.7,2661.7,4413.4,2585.9z"/>
	<path class="st0" d="M1509.4,2829.6c-266.2,0-532.4,1-798.6-1.9c-21.9-0.2-53.2-23-63.5-43.6c-29.1-57.7-49.5-119.8-82.7-203.9
		c328.7,80.7,637.8,156.6,946.9,232.5C1510.8,2818.3,1510.1,2823.9,1509.4,2829.6z"/>
	<path class="st0" d="M737.6,2928.8c250,0,500.1,0,750.1,0c1,4.4,2,8.7,3,13.1c-206.1,51.5-410.8,112.4-619.7,146.5
		c-41,6.7-98.9-90-149-139.1C727.1,2942.5,732.3,2935.7,737.6,2928.8z"/>
	<path class="st0" d="M4265.8,2930.8c-74.9,168.3-90.9,176.6-252.4,136.2c-166.4-41.6-332.9-82.6-498.2-136.2
		C3764.7,2930.8,4014.1,2930.8,4265.8,2930.8z"/>
</g>
</svg>
